<svg width="19" height="19" viewBox="0 0 19 19" fill="none" xmlns="http://www.w3.org/2000/svg">
<path fill-rule="evenodd" clip-rule="evenodd" d="M16.253 2.74678C16.4849 2.97866 16.4849 3.3546 16.253 3.58647L3.58635 16.2531C3.35447 16.485 2.97853 16.485 2.74666 16.2531C2.51479 16.0213 2.51479 15.6453 2.74666 15.4134L15.4133 2.74678C15.6452 2.51491 16.0211 2.51491 16.253 2.74678Z" fill="#666666"/>
<path fill-rule="evenodd" clip-rule="evenodd" d="M2.7465 2.74678C2.51462 2.97866 2.51462 3.3546 2.7465 3.58647L12.2465 13.0865C12.4784 13.3183 12.8543 13.3183 13.0862 13.0865C13.3181 12.8546 13.3181 12.4787 13.0862 12.2468L3.58619 2.74678C3.35431 2.51491 2.97837 2.51491 2.7465 2.74678ZM13.8298 13.8301C13.598 14.062 13.598 14.4379 13.8298 14.6698L15.4132 16.2531C15.645 16.485 16.021 16.485 16.2529 16.2531C16.4847 16.0213 16.4847 15.6453 16.2529 15.4134L14.6695 13.8301C14.4376 13.5982 14.0617 13.5982 13.8298 13.8301Z" fill="#666666"/>
</svg>
