<svg width="10" height="10" viewBox="0 0 10 10" fill="none" xmlns="http://www.w3.org/2000/svg">
<path fill-rule="evenodd" clip-rule="evenodd" d="M7.49996 8.85425C7.90267 8.85425 8.22913 8.52779 8.22913 8.12508C8.22913 7.72237 7.90267 7.39591 7.49996 7.39591C7.09725 7.39591 6.77079 7.72237 6.77079 8.12508C6.77079 8.52779 7.09725 8.85425 7.49996 8.85425ZM8.85413 8.12508C8.85413 8.87297 8.24784 9.47925 7.49996 9.47925C6.75207 9.47925 6.14579 8.87297 6.14579 8.12508C6.14579 7.3772 6.75207 6.77091 7.49996 6.77091C8.24784 6.77091 8.85413 7.3772 8.85413 8.12508Z" fill="#111B5C"/>
<path fill-rule="evenodd" clip-rule="evenodd" d="M7.49996 5.72925C7.90267 5.72925 8.22913 5.40279 8.22913 5.00008C8.22913 4.59737 7.90267 4.27091 7.49996 4.27091C7.09725 4.27091 6.77079 4.59737 6.77079 5.00008C6.77079 5.40279 7.09725 5.72925 7.49996 5.72925ZM8.85413 5.00008C8.85413 5.74797 8.24784 6.35425 7.49996 6.35425C6.75207 6.35425 6.14579 5.74797 6.14579 5.00008C6.14579 4.2522 6.75207 3.64591 7.49996 3.64591C8.24784 3.64591 8.85413 4.2522 8.85413 5.00008Z" fill="#111B5C"/>
<path fill-rule="evenodd" clip-rule="evenodd" d="M7.49996 2.60425C7.90267 2.60425 8.22913 2.27779 8.22913 1.87508C8.22913 1.47237 7.90267 1.14591 7.49996 1.14591C7.14756 1.14591 6.85292 1.39622 6.78538 1.72891C6.77585 1.77588 6.77079 1.82473 6.77079 1.87508C6.77079 2.04767 6.63088 2.18758 6.45829 2.18758C6.2857 2.18758 6.14579 2.04767 6.14579 1.87508C6.14579 1.78274 6.15508 1.69224 6.17288 1.60458C6.29837 0.986344 6.84446 0.520915 7.49996 0.520915C8.24784 0.520915 8.85413 1.1272 8.85413 1.87508C8.85413 2.62297 8.24784 3.22925 7.49996 3.22925C7.32737 3.22925 7.18746 3.08934 7.18746 2.91675C7.18746 2.74416 7.32737 2.60425 7.49996 2.60425Z" fill="#111B5C"/>
<path fill-rule="evenodd" clip-rule="evenodd" d="M5.52075 8.125C5.52075 8.29759 5.38084 8.4375 5.20825 8.4375L1.45825 8.4375C1.28566 8.4375 1.14575 8.29759 1.14575 8.125C1.14575 7.95241 1.28566 7.8125 1.45825 7.8125L5.20825 7.8125C5.38084 7.8125 5.52075 7.95241 5.52075 8.125Z" fill="#111B5C"/>
<path fill-rule="evenodd" clip-rule="evenodd" d="M5.52075 5C5.52075 5.17259 5.38084 5.3125 5.20825 5.3125L1.45825 5.3125C1.28566 5.3125 1.14575 5.17259 1.14575 5C1.14575 4.82741 1.28566 4.6875 1.45825 4.6875L5.20825 4.6875C5.38084 4.6875 5.52075 4.82741 5.52075 5Z" fill="#111B5C"/>
<path fill-rule="evenodd" clip-rule="evenodd" d="M5.52075 1.875C5.52075 2.04759 5.38084 2.1875 5.20825 2.1875L1.45825 2.1875C1.28566 2.1875 1.14575 2.04759 1.14575 1.875C1.14575 1.70241 1.28566 1.5625 1.45825 1.5625L5.20825 1.5625C5.38084 1.5625 5.52075 1.70241 5.52075 1.875Z" fill="#111B5C"/>
</svg>
