<svg width="40" height="30" viewBox="0 0 40 30" fill="none" xmlns="http://www.w3.org/2000/svg">
<path d="M39.6968 19.4567C39.6968 22.1783 37.3372 24.3064 34.6146 24.0402L17.1769 22.3355C14.8069 22.1038 13.0002 20.1212 13.0002 17.752L13.0002 9.11007C13.0002 6.72067 14.8369 4.72809 17.2297 4.52169L34.6674 3.01755C37.3718 2.78427 39.6968 4.90534 39.6968 7.60593L39.6968 19.4567Z" fill="white"/>
<g filter="url(#filter0_b_69_240)">
<path d="M0 10C0 8.34315 1.34315 7 3 7H23C24.6569 7 26 8.34315 26 10V22C26 26.4183 22.4183 30 18 30H8C3.58172 30 0 26.4183 0 22V10Z" fill="url(#paint0_linear_69_240)" fill-opacity="0.2"/>
</g>
<path d="M6 7C6.13978 5 7.67742 1 12.7097 1C17.7419 1 19 5 19 7" stroke="url(#paint1_linear_69_240)" stroke-opacity="0.5" stroke-width="2"/>
<circle cx="6.5" cy="11.5" r="1.5" fill="white"/>
<circle cx="19.5" cy="11.5" r="1.5" fill="white"/>
<defs>
<filter id="filter0_b_69_240" x="-24" y="-17" width="74" height="71" filterUnits="userSpaceOnUse" color-interpolation-filters="sRGB">
<feFlood flood-opacity="0" result="BackgroundImageFix"/>
<feGaussianBlur in="BackgroundImageFix" stdDeviation="12"/>
<feComposite in2="SourceAlpha" operator="in" result="effect1_backgroundBlur_69_240"/>
<feBlend mode="normal" in="SourceGraphic" in2="effect1_backgroundBlur_69_240" result="shape"/>
</filter>
<linearGradient id="paint0_linear_69_240" x1="13" y1="7" x2="13" y2="30" gradientUnits="userSpaceOnUse">
<stop stop-color="white"/>
<stop offset="0.45" stop-color="white"/>
<stop offset="1" stop-color="white"/>
</linearGradient>
<linearGradient id="paint1_linear_69_240" x1="12.5" y1="1" x2="12.5" y2="7" gradientUnits="userSpaceOnUse">
<stop stop-color="white"/>
<stop offset="0.5" stop-color="white"/>
<stop offset="1" stop-color="white"/>
</linearGradient>
</defs>
</svg>
